<?xml version="1.0" encoding="utf-8"?>
<!-- Generator: Adobe Illustrator 19.1.0, SVG Export Plug-In . SVG Version: 6.00 Build 0)  -->
<svg version="1.1" id="Слой_1" xmlns="http://www.w3.org/2000/svg" xmlns:xlink="http://www.w3.org/1999/xlink" x="0px" y="0px"
	 viewBox="0 0 28 28" style="enable-background:new 0 0 28 28;" xml:space="preserve">
<style type="text/css">
	.st0{fill:#FFFFFF;}
</style>
<g>
	<path class="st0" d="M18,10c0-2.2-1.8-4-4-4s-4,1.8-4,4s1.8,4,4,4S18,12.2,18,10z M12,10c0-1.1,0.9-2,2-2c1.1,0,2,0.9,2,2
		c0,1.1-0.9,2-2,2C12.9,12,12,11.1,12,10z"/>
	<path class="st0" d="M27.9,26.5l-4-7c-0.3-0.5-0.9-0.6-1.4-0.4c-0.5,0.3-0.6,0.9-0.4,1.4l3.1,5.5H2.7l3.1-5.5
		C6.1,20,6,19.4,5.5,19.1C5,18.9,4.4,19,4.1,19.5l-4,7c-0.2,0.3-0.2,0.7,0,1C0.3,27.8,0.6,28,1,28h26c0.4,0,0.7-0.2,0.9-0.5
		C28,27.2,28,26.8,27.9,26.5z"/>
	<path class="st0" d="M22,10.2c0,3.8-5.3,9.7-8,12.4V25c0.2,0,0.5-0.1,0.7-0.3c0.4-0.3,9.3-8.6,9.3-14.5C24,4.6,19.5,0,14,0v2
		C18.4,2,22,5.7,22,10.2z"/>
	<path class="st0" d="M13.3,24.7c0.2,0.2,0.4,0.3,0.7,0.3v-2.4c-2.7-2.7-8-8.6-8-12.4C6,5.7,9.6,2,14,2V0C8.5,0,4,4.6,4,10.2
		C4,16.1,12.9,24.4,13.3,24.7z"/>
</g>
</svg>
