<?xml version="1.0" encoding="utf-8"?>
<!-- Generator: Adobe Illustrator 19.1.0, SVG Export Plug-In . SVG Version: 6.00 Build 0)  -->
<svg version="1.1" id="Слой_1" xmlns="http://www.w3.org/2000/svg" xmlns:xlink="http://www.w3.org/1999/xlink" x="0px" y="0px"
	 viewBox="0 0 28 45" style="enable-background:new 0 0 28 45;" xml:space="preserve">
<style type="text/css">
	.st0{fill:none;stroke:#FFFFFF;stroke-width:2;stroke-linecap:round;stroke-linejoin:round;stroke-miterlimit:10;}
</style>
<path class="st0" d="M13.7,44L13.7,44c-7,0-12.7-5.7-12.7-12.7V13.9c0-7,5.7-12.7,12.7-12.7h0c7,0,12.7,5.7,12.7,12.7v17.3
	C26.4,38.3,20.8,44,13.7,44z"/>
<path class="st0" d="M13.5,22.6L13.5,22.6c-1.2,0-2.2-1-2.2-2.2v-7.6c0-1.2,1-2.2,2.2-2.2h0c1.2,0,2.2,1,2.2,2.2v7.6
	C15.7,21.6,14.7,22.6,13.5,22.6z"/>
</svg>
