<?xml version="1.0" encoding="utf-8"?>
<!-- Generator: Adobe Illustrator 19.1.0, SVG Export Plug-In . SVG Version: 6.00 Build 0)  -->
<svg version="1.1" id="Слой_1" xmlns="http://www.w3.org/2000/svg" xmlns:xlink="http://www.w3.org/1999/xlink" x="0px" y="0px"
	 viewBox="0 0 52 48" style="enable-background:new 0 0 52 48;" xml:space="preserve">
<style type="text/css">
	.st0{fill:#4C72A2;}
</style>
<g>
	<g>
		<g>
			<polygon class="st0" points="40.5,29.4 40.5,26 47.2,26 47.2,24.4 38.9,24.4 38.9,36.1 40.5,36.1 40.5,31.1 45.6,31.1 45.6,29.4 
				40.5,29.4 			"/>
			<path class="st0" d="M23.8,24.3h-5v3.3V36h1.7v-5h3.3c1.9,0,3.4-1.5,3.4-3.3C27.2,25.8,25.7,24.3,23.8,24.3z M23.8,29.3h-3.3V26
				h3.3c0.9,0,1.7,0.7,1.7,1.7C25.5,28.6,24.7,29.3,23.8,29.3z"/>
			<path class="st0" d="M33.8,24.4h-5v11.7h5c1.9,0,3.4-1.5,3.4-3.4v-5C37.2,25.9,35.7,24.4,33.8,24.4z M35.5,32.7
				c0,0.9-0.7,1.7-1.7,1.7h-3.3V26h3.3c0.9,0,1.7,0.7,1.7,1.7V32.7z"/>
		</g>
		<path class="st0" d="M46.4,19H33v-5L23,2.3H4.6c-1.8,0-3.3,1.5-3.3,3.4V44c0,1.9,1.5,3.4,3.3,3.4h25.1c1.8,0,3.3-1.5,3.3-3.3v-3.4
			h13.4c2.8,0,5-2.2,5-5V24C51.4,21.2,49.2,19,46.4,19z M23,4.9l7.9,9.2h-6.2c-0.9,0-1.7-0.8-1.7-1.7V4.9z M31.4,44.1
			c0,0.9-0.7,1.7-1.7,1.7H4.6c-0.9,0-1.7-0.7-1.7-1.7V5.6c0-0.9,0.7-1.7,1.7-1.7h16.7v8.3c0,1.9,1.5,3.4,3.3,3.4h6.7V19H18
			c-2.8,0-5,2.2-5,5v11.7c0,2.8,2.2,5,5,5h13.4V44.1z M49.7,35.7c0,1.8-1.5,3.3-3.3,3.3H18c-1.8,0-3.3-1.5-3.3-3.3V24
			c0-1.8,1.5-3.3,3.3-3.3h28.4c1.8,0,3.3,1.5,3.3,3.3V35.7z"/>
	</g>
</g>
</svg>
