<?xml version="1.0" encoding="utf-8"?>
<!-- Generator: Adobe Illustrator 19.1.0, SVG Export Plug-In . SVG Version: 6.00 Build 0)  -->
<svg version="1.1" id="Слой_1" xmlns="http://www.w3.org/2000/svg" xmlns:xlink="http://www.w3.org/1999/xlink" x="0px" y="0px"
	 viewBox="0 0 110 110" style="enable-background:new 0 0 110 110;" xml:space="preserve">
<style type="text/css">
	.st0{opacity:0.2;fill:#FFFFFF;}
	.st1{opacity:0.6;fill:#BDBDBD;}
	.st2{fill:none;stroke:#FFFFFF;stroke-width:2;stroke-linecap:round;stroke-miterlimit:10;}
	.st3{fill:none;stroke:#FFFFFF;stroke-width:2;stroke-miterlimit:10;}
	.st4{fill:#FFFFFF;}
	.st5{font-family:'MuseoSansCyrl-700';}
	.st6{font-size:14px;}
</style>
<g>
	<g>
		<circle class="st0" cx="56.4" cy="57.2" r="50"/>
	</g>
	<g>
		<circle class="st1" cx="53" cy="53.1" r="16.5"/>
		<path class="st2" d="M53,62.5c-5.2,0-9.4-4.2-9.4-9.4"/>
		<circle class="st3" cx="53" cy="53.1" r="16.5"/>
		<path class="st3" d="M80.7,76.9L70.5,66.6c2.9-3.7,4.6-8.4,4.6-13.5C75,40.9,65.2,31,53,31c-12.2,0-22.1,9.9-22.1,22.1
			S40.8,75.2,53,75.2c4.4,0,8.4-1.3,11.9-3.5l10.5,10.5c1.5,1.5,3.9,1.5,5.4,0C82.2,80.8,82.2,78.3,80.7,76.9z"/>
	</g>
	<g>
		<circle class="st3" cx="16.7" cy="17.5" r="10.3"/>
		<text transform="matrix(1 0 0 1 13.0349 21.9346)" class="st4 st5 st6">1</text>
	</g>
</g>
</svg>
