<?xml version="1.0" encoding="utf-8"?>
<!-- Generator: Adobe Illustrator 19.1.0, SVG Export Plug-In . SVG Version: 6.00 Build 0)  -->
<svg version="1.1" id="Слой_1" xmlns="http://www.w3.org/2000/svg" xmlns:xlink="http://www.w3.org/1999/xlink" x="0px" y="0px"
	 viewBox="0 0 110 110" style="enable-background:new 0 0 110 110;" xml:space="preserve">
<style type="text/css">
	.st0{opacity:0.2;fill:#FFFFFF;}
	.st1{opacity:0.6;fill:#BDBDBD;}
	.st2{fill:none;stroke:#FFFFFF;stroke-width:2;stroke-miterlimit:10;}
	.st3{fill:#FFFFFF;}
	.st4{font-family:'MuseoSansCyrl-700';}
	.st5{font-size:14px;}
</style>
<g>
	<g>
		<circle class="st0" cx="56.5" cy="57" r="50"/>
	</g>
	<g>
		<g>
			<path class="st1" d="M42.1,77.6c0,0-0.5-0.5,1,1C50.7,71,64,70.9,64,70.9L73.4,54l2,2l8.6-6.4L79.2,45l-8.3,6.5l-1-1.1L42.1,77.6
				z"/>
			<polyline class="st2" points="69.8,50.4 65.2,45.8 63.4,44 69.8,35.4 			"/>
			<path class="st2" d="M41.9,77.4c0,0,0.5,0.5-1-1c7.6-7.6,7.7-20.9,7.7-20.9l16.9-9.4"/>
			<polyline class="st2" points="69.5,50.1 73.6,54.3 75.5,56.1 84,49.7 			"/>
			<path class="st2" d="M42.1,77.6c0,0-0.5-0.5,1,1C50.7,71,64,70.9,64,70.9L73.4,54"/>
			<path class="st2" d="M73.4,54L64,70.9c0,0-13.3,0.1-20.9,7.7c-1.6-1.6-1-1-1-1"/>
			<line class="st2" x1="41.9" y1="77.4" x2="55.7" y2="63.5"/>
			<circle class="st3" cx="57.5" cy="61.8" r="2.8"/>
		</g>
		<line class="st2" x1="26.7" y1="82.5" x2="87.5" y2="82.5"/>
		<path class="st2" d="M27.1,82.5c-6.3,0-11.5-5.1-11.5-11.5c0-4.7,3.8-8.5,8.5-8.5c3.5,0,6.3,2.8,6.3,6.3c0,2.6-2.1,4.7-4.7,4.7"/>
	</g>
	<g>
		<circle class="st2" cx="15.6" cy="17.3" r="10.3"/>
		<text transform="matrix(1 0 0 1 11.2786 21.7613)" class="st3 st4 st5">4</text>
	</g>
</g>
</svg>
