<?xml version="1.0" encoding="utf-8"?>
<!-- Generator: Adobe Illustrator 19.1.0, SVG Export Plug-In . SVG Version: 6.00 Build 0)  -->
<svg version="1.1" id="Слой_1" xmlns="http://www.w3.org/2000/svg" xmlns:xlink="http://www.w3.org/1999/xlink" x="0px" y="0px"
	 viewBox="0 0 110 110" style="enable-background:new 0 0 110 110;" xml:space="preserve">
<style type="text/css">
	.st0{opacity:0.2;fill:#FFFFFF;}
	.st1{fill:none;stroke:#FFFFFF;stroke-width:2;stroke-linecap:round;stroke-linejoin:round;stroke-miterlimit:10;}
	.st2{opacity:0.6;fill:#BDBDBD;}
	.st3{fill:none;stroke:#FFFFFF;stroke-width:2;stroke-miterlimit:10;}
	.st4{fill:#FFFFFF;}
	.st5{font-family:'MuseoSansCyrl-700';}
	.st6{font-size:14px;}
</style>
<g>
	<g>
		<circle class="st0" cx="55.8" cy="57.2" r="50"/>
	</g>
	<g>
		<polyline class="st1" points="44.5,33.2 34.8,33.2 34.8,85.7 76.8,85.7 76.8,33.2 67.2,33.2 		"/>
		<polygon class="st2" points="60.2,30.2 60.2,28 51.5,28 51.5,30.2 44.5,30.2 44.5,33.5 44.5,36.8 67.2,36.8 67.2,30.2 		"/>
		<polygon class="st1" points="60.2,30.2 60.2,28 51.5,28 51.5,30.2 44.5,30.2 44.5,33.5 44.5,36.8 67.2,36.8 67.2,30.2 		"/>
		<path class="st2" d="M40.8,55.2L40.8,55.2c-1.4,0-2.5-1.1-2.5-2.5v0c0-1.4,1.1-2.5,2.5-2.5h0c1.4,0,2.5,1.1,2.5,2.5v0
			C43.3,54.1,42.2,55.2,40.8,55.2z"/>
		<path class="st2" d="M40.8,63.7L40.8,63.7c-1.4,0-2.5-1.1-2.5-2.5v0c0-1.4,1.1-2.5,2.5-2.5h0c1.4,0,2.5,1.1,2.5,2.5v0
			C43.3,62.5,42.2,63.7,40.8,63.7z"/>
		<path class="st2" d="M40.8,72.1L40.8,72.1c-1.4,0-2.5-1.1-2.5-2.5v0c0-1.4,1.1-2.5,2.5-2.5h0c1.4,0,2.5,1.1,2.5,2.5v0
			C43.3,70.9,42.2,72.1,40.8,72.1z"/>
		<path class="st2" d="M40.8,80.5L40.8,80.5c-1.4,0-2.5-1.1-2.5-2.5v0c0-1.4,1.1-2.5,2.5-2.5h0c1.4,0,2.5,1.1,2.5,2.5v0
			C43.3,79.4,42.2,80.5,40.8,80.5z"/>
		<polyline class="st3" points="39,44.4 53.5,44.4 72.4,44.4 		"/>
		<line class="st3" x1="46.5" y1="53.1" x2="72.4" y2="53.1"/>
		<line class="st3" x1="46.5" y1="61.2" x2="72.4" y2="61.2"/>
		<line class="st3" x1="46.5" y1="69.6" x2="69" y2="69.6"/>
		<line class="st3" x1="46.5" y1="78" x2="72.4" y2="78"/>
	</g>
	<g>
		<circle class="st3" cx="16.1" cy="17.5" r="10.3"/>
		<text transform="matrix(1 0 0 1 12.0964 21.9346)" class="st4 st5 st6">3</text>
	</g>
</g>
</svg>
