<?xml version="1.0" encoding="utf-8"?>
<!-- Generator: Adobe Illustrator 19.1.0, SVG Export Plug-In . SVG Version: 6.00 Build 0)  -->
<svg version="1.1" id="Слой_1" xmlns="http://www.w3.org/2000/svg" xmlns:xlink="http://www.w3.org/1999/xlink" x="0px" y="0px"
	 viewBox="0 0 110 110" style="enable-background:new 0 0 110 110;" xml:space="preserve">
<style type="text/css">
	.st0{opacity:0.2;fill:#FFFFFF;}
	.st1{opacity:0.6;fill:#BDBDBD;}
	.st2{fill:none;stroke:#FFFFFF;stroke-width:2;stroke-linecap:round;stroke-linejoin:round;stroke-miterlimit:10;}
	.st3{fill:none;stroke:#FFFFFF;stroke-width:2;stroke-miterlimit:10;}
	.st4{fill:#FFFFFF;}
	.st5{font-family:'MuseoSansCyrl-700';}
	.st6{font-size:14px;}
</style>
<g>
	<g>
		<circle class="st0" cx="56.3" cy="57.2" r="50"/>
	</g>
	<g>
		<path class="st1" d="M24.6,36.7v24.8c0,2.2,1.8,4.1,4.1,4.1h21.9v-5.8H62v5.8h21.9c2.2,0,4.1-1.8,4.1-4.1V36.7H24.6z"/>
		<polyline class="st2" points="28.9,65.5 28.9,85.7 83.7,85.7 83.7,65.5 		"/>
		<path class="st2" d="M62,65.5h21.9c2.2,0,4.1-1.8,4.1-4.1V36.7H24.6v24.8c0,2.2,1.8,4.1,4.1,4.1h21.9"/>
		<polyline class="st2" points="67.8,36.7 67.8,28 63.5,28 49.1,28 44.7,28 44.7,36.7 		"/>
		<rect x="50.5" y="59.8" class="st2" width="11.5" height="11.5"/>
		<line class="st2" x1="53.4" y1="59.8" x2="53.4" y2="36.7"/>
		<line class="st2" x1="59.1" y1="59.8" x2="59.1" y2="36.7"/>
		<path class="st2" d="M59.1,71.3v4.3c0,1.6-1.3,2.9-2.9,2.9c-1.6,0-2.9-1.3-2.9-2.9v-4.3"/>
	</g>
	<g>
		<circle class="st3" cx="17.2" cy="17.5" r="10.3"/>
		<text transform="matrix(1 0 0 1 13.167 21.9346)" class="st4 st5 st6">2</text>
	</g>
</g>
</svg>
