<?xml version="1.0" encoding="utf-8"?>
<!-- Generator: Adobe Illustrator 19.1.0, SVG Export Plug-In . SVG Version: 6.00 Build 0)  -->
<svg version="1.1" id="Слой_1" xmlns="http://www.w3.org/2000/svg" xmlns:xlink="http://www.w3.org/1999/xlink" x="0px" y="0px"
	 viewBox="0 0 110 110" style="enable-background:new 0 0 110 110;" xml:space="preserve">
<style type="text/css">
	.st0{opacity:0.2;fill:#FFFFFF;}
	.st1{fill:none;stroke:#FFFFFF;stroke-width:2;stroke-linecap:round;stroke-miterlimit:10;}
	.st2{opacity:0.6;}
	.st3{fill:#BDBDBD;}
	.st4{fill:none;stroke:#FFFFFF;stroke-width:2;stroke-miterlimit:10;}
	.st5{fill:none;stroke:#BDBDBD;stroke-width:2;stroke-linecap:round;stroke-miterlimit:10;}
	.st6{fill:#FFFFFF;}
	.st7{font-family:'MuseoSansCyrl-700';}
	.st8{font-size:14px;}
</style>
<g>
	<g>
		<circle class="st0" cx="55.3" cy="57" r="50"/>
	</g>
	<g>
		<line class="st1" x1="22.3" y1="79.2" x2="88.3" y2="79.2"/>
		<line class="st1" x1="22.3" y1="85" x2="88.3" y2="85"/>
		<g>
			<g id="Expanded_3_">
				<g>
					<g class="st2">
						<path class="st3" d="M75,67.4c0.5,0,0.9,0.4,0.9,0.8v3.2c0,0.4-0.4,0.8-0.9,0.8H35.6c-0.5,0-0.9-0.4-0.9-0.8v-3.2
							c0-0.4,0.4-0.8,0.9-0.8"/>
					</g>
					<g>
						<path class="st4" d="M75,67.4c0.5,0,0.9,0.4,0.9,0.8v3.2c0,0.4-0.4,0.8-0.9,0.8H35.6c-0.5,0-0.9-0.4-0.9-0.8v-3.2
							c0-0.4,0.4-0.8,0.9-0.8"/>
					</g>
					<g>
						<path class="st4" d="M76.9,67.4H33.8c-0.5,0-0.9-0.4-0.9-0.9v-5.6c0-2.6,2.1-4.7,4.7-4.7h9.1c6.2-4.3,3.3-10.5,1.1-15.5
							c-1-2.1-1.7-3.8-1.7-5.1c0-6.1,4.7-9.3,9.4-9.3c4.7,0,9.4,3.2,9.4,9.3c0,1.3-0.7,3-1.7,5.1c-2.3,5-5.1,11.3,1,15.5h9.1
							c2.6,0,4.7,2.1,4.7,4.7v5.6C77.8,67,77.4,67.4,76.9,67.4z"/>
					</g>
				</g>
			</g>
			<g>
				<line class="st5" x1="52.8" y1="36" x2="55.1" y2="38.4"/>
				<line class="st5" x1="55.1" y1="38.4" x2="58.9" y2="34.6"/>
			</g>
		</g>
		<line class="st1" x1="22.3" y1="79.2" x2="22.3" y2="85"/>
		<line class="st1" x1="26.9" y1="79.2" x2="26.9" y2="85"/>
	</g>
	<g>
		<circle class="st4" cx="15.6" cy="17.3" r="10.3"/>
		<text transform="matrix(1 0 0 1 11.6058 21.7613)" class="st6 st7 st8">5</text>
	</g>
</g>
</svg>
