<?xml version="1.0" encoding="utf-8"?>
<!-- Generator: Adobe Illustrator 19.1.0, SVG Export Plug-In . SVG Version: 6.00 Build 0)  -->
<svg version="1.1" id="Слой_1" xmlns="http://www.w3.org/2000/svg" xmlns:xlink="http://www.w3.org/1999/xlink" x="0px" y="0px"
	 viewBox="0 0 110 110" style="enable-background:new 0 0 110 110;" xml:space="preserve">
<style type="text/css">
	.st0{opacity:0.2;fill:#FFFFFF;}
	.st1{opacity:0.6;fill:#BDBDBD;}
	.st2{fill:none;stroke:#FFFFFF;stroke-width:2;stroke-linejoin:round;stroke-miterlimit:10;}
	.st3{fill:none;stroke:#FFFFFF;stroke-width:2;stroke-linecap:round;stroke-linejoin:round;stroke-miterlimit:10;}
	.st4{fill:none;stroke:#FFFFFF;stroke-width:2;stroke-miterlimit:10;}
	.st5{fill:#FFFFFF;}
	.st6{font-family:'MuseoSansCyrl-700';}
	.st7{font-size:14px;}
</style>
<g>
	<g>
		<circle class="st0" cx="55.9" cy="57" r="50"/>
	</g>
	<path class="st1" d="M28.5,75.7V30.9c0-4.4,3.5-7.9,7.9-7.9c3.2,0,5.9,2.6,5.9,5.9v44.8c0-3.2-2.6-5.9-5.9-5.9
		C32,67.8,28.5,71.3,28.5,75.7z"/>
	<line class="st2" x1="38.7" y1="86.3" x2="83.2" y2="86.3"/>
	<path class="st3" d="M39.1,86.3c-5.9,0-10.6-4.8-10.6-10.6c0-4.4,3.5-7.9,7.9-7.9c3.2,0,5.9,2.6,5.9,5.9c0,2.4-2,4.4-4.4,4.4"/>
	<line class="st2" x1="42.2" y1="35.8" x2="83.2" y2="35.8"/>
	<path class="st2" d="M28.5,30.9c0-4.4,3.5-7.9,7.9-7.9c3.2,0,5.9,2.6,5.9,5.9"/>
	<rect x="83.3" y="35.8" class="st2" width="0" height="50.5"/>
	<line class="st2" x1="28.5" y1="30.9" x2="28.5" y2="75.7"/>
	<line class="st2" x1="42.2" y1="28.9" x2="42.2" y2="73.7"/>
	<line class="st3" x1="37.9" y1="78" x2="37.9" y2="68.3"/>
	<line class="st3" x1="71.6" y1="48.7" x2="71.6" y2="77.5"/>
	<line class="st3" x1="52.6" y1="48.7" x2="52.6" y2="64.8"/>
	<line class="st3" x1="71.6" y1="63.1" x2="59.8" y2="63.1"/>
	<line class="st3" x1="51" y1="74.1" x2="74.7" y2="74.1"/>
	<line class="st3" x1="49" y1="53.3" x2="76.3" y2="53.3"/>
	<line class="st3" x1="59.8" y1="63.1" x2="59.8" y2="73.7"/>
	<g>
		<circle class="st4" cx="16.1" cy="17.3" r="10.3"/>
		<text transform="matrix(1 0 0 1 11.9105 21.7613)" class="st5 st6 st7">6</text>
	</g>
</g>
</svg>
