<?xml version="1.0" encoding="utf-8"?>
<!-- Generator: Adobe Illustrator 19.1.0, SVG Export Plug-In . SVG Version: 6.00 Build 0)  -->
<svg version="1.1" id="Слой_1" xmlns="http://www.w3.org/2000/svg" xmlns:xlink="http://www.w3.org/1999/xlink" x="0px" y="0px"
	 viewBox="0 0 110 110" style="enable-background:new 0 0 110 110;" xml:space="preserve">
<style type="text/css">
	.st0{opacity:0.2;fill:#FFFFFF;}
	.st1{opacity:0.6;fill:#BDBDBD;}
	.st2{fill:none;stroke:#FFFFFF;stroke-width:2;stroke-linecap:round;stroke-linejoin:round;stroke-miterlimit:10;}
	.st3{fill:none;stroke:#FFFFFF;stroke-width:2;stroke-linejoin:round;stroke-miterlimit:10;}
	.st4{fill:none;stroke:#FFFFFF;stroke-width:2;stroke-miterlimit:10;}
	.st5{fill:#FFFFFF;}
	.st6{font-family:'MuseoSansCyrl-700';}
	.st7{font-size:14px;}
</style>
<g>
	<g>
		<circle class="st0" cx="55.9" cy="57" r="50"/>
	</g>
	<g>
		<g>
			<g>
				<path class="st1" d="M31.6,29.4v15.2c0,1.6,1.2,2.8,2.6,2.8h0c1.4,0,2.6-1.3,2.6-2.8V27.4"/>
				<path class="st2" d="M31.6,29.4v15.2c0,1.6,1.2,2.8,2.6,2.8h0c1.4,0,2.6-1.3,2.6-2.8V27.4"/>
				<path class="st1" d="M54.3,29.4v15.2c0,1.6-1.2,2.8-2.6,2.8h0c-1.4,0-2.6-1.3-2.6-2.8V27.4"/>
				<polyline class="st1" points="17.2,65 75.1,65 75.1,55.5 10.7,55.5 10.7,65 17.2,65 				"/>
				<polyline class="st2" points="17.2,65 75.1,65 75.1,55.5 10.7,55.5 10.7,65 17.2,65 				"/>
				<path class="st2" d="M49,27.4c11.6,2.9,20.2,14.2,20.2,27.5"/>
				<path class="st2" d="M16.6,54.9c0-13.4,8.6-24.6,20.2-27.5"/>
				<g>
					<path class="st2" d="M36.9,44.4V23.7c2-0.4,4-0.7,6.1-0.7s4.1,0.2,6.1,0.7v20.8"/>
				</g>
				<line class="st1" x1="49" y1="44.6" x2="49" y2="27.4"/>
				<path class="st2" d="M54.3,29.4v15.2c0,1.6-1.2,2.8-2.6,2.8h0c-1.4,0-2.6-1.3-2.6-2.8V27.4"/>
			</g>
		</g>
	</g>
	<g>
		<path class="st1" d="M92.9,77V37.7c0-3.8-3.1-6.9-6.9-6.9c-2.8,0-5.1,2.3-5.1,5.1v39.3c0-2.8,2.3-5.1,5.1-5.1
			C89.8,70.1,92.9,73.2,92.9,77z"/>
		<line class="st3" x1="92.9" y1="37.7" x2="92.9" y2="77"/>
		<line class="st2" x1="84.6" y1="79.1" x2="84.6" y2="70.5"/>
		<g>
			<line class="st2" x1="83.8" y1="86.3" x2="33.9" y2="86.3"/>
			<path class="st2" d="M83.5,86.3c5.1,0,9.3-4.2,9.3-9.3c0-3.8-3.1-6.9-6.9-6.9c-2.8,0-5.1,2.3-5.1,5.1c0,2.1,1.7,3.8,3.8,3.8"/>
			<line class="st3" x1="80.8" y1="42.1" x2="66.4" y2="42.1"/>
			<path class="st3" d="M92.9,37.7c0-3.8-3.1-6.9-6.9-6.9c-2.8,0-5.1,2.3-5.1,5.1"/>
			<line class="st3" x1="80.8" y1="35.9" x2="80.8" y2="75.2"/>
			<line class="st2" x1="33.9" y1="86.3" x2="33.9" y2="65.3"/>
		</g>
	</g>
	<g>
		<circle class="st4" cx="14.7" cy="17.3" r="10.3"/>
		<text transform="matrix(1 0 0 1 10.9159 21.7613)" class="st5 st6 st7">7</text>
	</g>
</g>
</svg>
