<?xml version="1.0" encoding="utf-8"?>
<!-- Generator: Adobe Illustrator 19.1.0, SVG Export Plug-In . SVG Version: 6.00 Build 0)  -->
<svg version="1.1" id="Слой_1" xmlns="http://www.w3.org/2000/svg" xmlns:xlink="http://www.w3.org/1999/xlink" x="0px" y="0px"
	 viewBox="20 26 240 30" style="enable-background:new 20 26 240 30;" xml:space="preserve">
<style type="text/css">
	.st0{fill:#353535;}
	.st1{fill:#333333;}
</style>
<g id="miu_2_">
	<g id="Artboard-1_2_" transform="translate(-539.000000, -335.000000)">
		<g id="slice_2_" transform="translate(215.000000, 119.000000)">
		</g>
		<path id="business-suitcase-glyph_2_" class="st0" d="M86.5,26h1.2H95l0,0h-1.3H74.6h-1.3l0,0h7.3h1.2l0,0c0,0,0.5,0,1.2,0h2.4
			C86,26,86.5,26,86.5,26L86.5,26L86.5,26z M86.5,26h1.2H95l0,0h-1.3H74.6h-1.3l0,0h7.2h1.2c0,0,0.5,0,1.2,0h2.4
			C86,26,86.5,26,86.5,26L86.5,26z M86.6,26h-4.9l0,0h-1.2l0,0h1.4h4.5h1.4l0,0H86.6L86.6,26z M82.9,26L82.9,26h2.4l0,0H82.9z"/>
	</g>
</g>
<g id="Icons_new_Arranged_Names_2_">
	<g id="_x38_7_Lightning_2_">
		<path id="Rectangle_297_copy_2_" class="st1" d="M63.3,30.9h5.9l-3.4,6.9h4.7L59.4,51.1l3.4-10.7h-3.3L63.3,30.9z"/>
	</g>
</g>
<path class="st1" d="M256,40.7v-6.3h-22v6.3h1.6v2.6H234v6.3h1.6h1.6h3.4h2.6h9.7h1.5h1.6v-4.1v-2.2h-1.6v-2.6H256z M235.6,37.6h3.1
	v1.6h-3.1V37.6z M238.7,48h-3.1v-1.6h3.1V48z M252.9,43.3h-12.3h-3.4v-2.6h15.7V43.3z"/>
<path class="st1" d="M43.1,46.3l-1.7,2.1l-2.5-0.9l-2.7,1.3l-0.9,2.5h-2.7l-0.9-2.5l-2.7-1.3l-2.5,0.9l-1.7-2.1l1.4-2.3l-0.7-2.9
	l-2.3-1.4l0.6-2.6l2.6-0.3l1.8-2.3l-0.3-2.6l2.4-1.2l1.9,1.9h2.9l1.9-1.9l2.4,1.2l-0.3,2.6l1.8,2.3l2.6,0.3l0.6,2.6l-2.3,1.4
	L41.6,44L43.1,46.3z M34,36.1c-2.7,0-4.9,2.2-4.9,4.9s2.2,4.9,4.9,4.9c2.7,0,4.9-2.2,4.9-4.9S36.7,36.1,34,36.1z M34,44.4
	c-1.9,0-3.4-1.5-3.4-3.4s1.5-3.4,3.4-3.4c1.9,0,3.4,1.5,3.4,3.4S35.9,44.4,34,44.4z"/>
<g>
	<g>
		<path class="st1" d="M212.9,33.3h-7.7c0,0-2,0-2,2v14.1c0,0.5,0.4,0.9,0.9,0.9c0,0,6.8,0,8,0c1.3,0,1.7,2,1.7,2h0.4V34.5
			C214.1,34.1,213.5,33.3,212.9,33.3z"/>
	</g>
	<g>
		<path class="st1" d="M224.9,33.3h-7.7c-0.6,0-1.3,0.8-1.3,1.2v17.8h0.4c0,0,0.4-2,1.7-2s8,0,8,0c0.5,0,0.9-0.4,0.9-0.9V35.3
			C226.9,33.3,224.9,33.3,224.9,33.3z M225.5,45.8h-7.4V45h7.4V45.8z M225.5,43.7h-7.4v-0.8h7.4V43.7z M225.5,41.6h-7.4v-0.8h7.4
			V41.6z M225.5,39.5h-7.4v-0.8h7.4V39.5z"/>
	</g>
</g>
<g>
	<path class="st1" d="M185.9,42.3c2.4-1.6,5.2-2.3,8.1-1.9c-0.1-1.6-0.6-3.1-1.5-4.5c-1-1.4-2.2-2.4-3.7-3.1
		c-0.7,2.7-2.4,5.2-4.7,6.8c-2.4,1.6-5.2,2.3-8,1.9c0.1,1.6,0.6,3.2,1.5,4.6c0.9,1.4,2.2,2.4,3.7,3.1
		C181.9,46.4,183.5,44,185.9,42.3z"/>
	<path class="st1" d="M183.1,38.2c2.1-1.4,3.5-3.5,4.1-6c-2.4-0.6-5.1-0.2-7.3,1.3c-2.2,1.5-3.6,3.8-3.9,6.3
		C178.5,40.2,181,39.6,183.1,38.2z"/>
	<path class="st1" d="M186.9,43.7c-2.1,1.4-3.5,3.5-4.1,6c2.4,0.6,5.1,0.2,7.3-1.3c2.2-1.5,3.6-3.8,3.9-6.3
		C191.5,41.7,189,42.3,186.9,43.7z"/>
</g>
<polygon class="st1" points="134.5,39.9 127.8,39.9 127.8,33.3 122.2,33.3 122.2,39.9 115.5,39.9 115.5,45.6 122.2,45.6 122.2,52.3 
	127.8,52.3 127.8,45.6 134.5,45.6 "/>
<g>
	<path class="st1" d="M146.7,50.1c0.3,0,0.5-0.2,0.5-0.5v-8.6c0-0.3-0.2-0.5-0.5-0.5h-1.9c-0.3,0-0.5,0.2-0.5,0.5v8.6
		c0,0.3,0.2,0.5,0.5,0.5H146.7z"/>
	<path class="st1" d="M167,51h-24c-0.3,0-0.5,0.2-0.5,0.5v1.3c0,0.3,0.2,0.5,0.5,0.5h24c0.3,0,0.5-0.2,0.5-0.5v-1.3
		C167.5,51.2,167.3,51,167,51z"/>
	<path class="st1" d="M152.9,50.1c0.3,0,0.5-0.2,0.5-0.5v-8.6c0-0.3-0.2-0.5-0.5-0.5H151c-0.3,0-0.5,0.2-0.5,0.5v8.6
		c0,0.3,0.2,0.5,0.5,0.5H152.9z"/>
	<path class="st1" d="M165.2,50.1c0.3,0,0.5-0.2,0.5-0.5v-8.6c0-0.3-0.2-0.5-0.5-0.5h-1.9c-0.3,0-0.5,0.2-0.5,0.5v8.6
		c0,0.3,0.2,0.5,0.5,0.5H165.2z"/>
	<path class="st1" d="M167.1,37.8l-10.2-8.5c-1.1-0.9-2.8-0.9-3.8,0l-10.2,8.5c-1.1,0.9-0.8,1.6,0.6,1.6h23.1
		C167.9,39.3,168.2,38.6,167.1,37.8z M155,37.3c-1.1,0-1.9-0.9-1.9-1.9c0-1.1,0.9-1.9,1.9-1.9c1.1,0,1.9,0.9,1.9,1.9
		C156.9,36.4,156.1,37.3,155,37.3z"/>
	<path class="st1" d="M159,50.1c0.3,0,0.5-0.2,0.5-0.5v-8.6c0-0.3-0.2-0.5-0.5-0.5h-1.9c-0.3,0-0.5,0.2-0.5,0.5v8.6
		c0,0.3,0.2,0.5,0.5,0.5H159z"/>
</g>
<g id="miu_1_">
	<g id="Artboard-1_1_" transform="translate(-539.000000, -335.000000)">
		<g id="slice_1_" transform="translate(215.000000, 119.000000)">
		</g>
		<g>
			<path class="st1" d="M636.4,377.8v1.2c0,0.7-0.5,1.2-1.2,1.2h-2.4c-0.7,0-1.2-0.5-1.2-1.2v-1.2h-1.2h-7.3v5.9
				c0,1.3,1.3,1.3,1.3,1.3h19.1c0,0,1.3,0,1.3-1.3v-5.9h-7.2H636.4z"/>
			<rect x="632.8" y="376.6" class="st1" width="2.4" height="2.4"/>
			<path class="st1" d="M643.5,370.5h-5.9v-2.1c0-1.5-1.4-1.5-1.4-1.5h-4.5c0,0-1.4,0-1.4,1.5v2.1h-5.9c0,0-1.3,0-1.3,1.4v4.7h7.2
				h1.2c0-0.7,0.5-1.2,1.2-1.2h2.4c0.7,0,1.2,0.5,1.2,1.2h1.2h7.2v-4.7C644.9,370.5,643.5,370.5,643.5,370.5z M636.5,370.5h-4.9
				v-2.4h4.9V370.5z"/>
		</g>
	</g>
</g>
</svg>
