<?xml version="1.0" encoding="utf-8"?>
<!-- Generator: Adobe Illustrator 19.1.0, SVG Export Plug-In . SVG Version: 6.00 Build 0)  -->
<svg version="1.1" id="Слой_1" xmlns="http://www.w3.org/2000/svg" xmlns:xlink="http://www.w3.org/1999/xlink" x="0px" y="0px"
	 viewBox="0 0 55 55" style="enable-background:new 0 0 55 55;" xml:space="preserve">
<style type="text/css">
	.st0{fill:#FFFFFF;}
</style>
<g>
	<path class="st0" d="M40.3,9.3c-7.5-4.7-15-4.7-22.2-1.7c0,0,4,0.1,5.4,4.9c1.4,4.9,2.7,9,7.4,8.9c-1.7-3.9,2.5-6.2,1.3-9.1
		C35.3,13.1,37.3,9,40.3,9.3"/>
	<path class="st0" d="M46.4,9.1C36-1.3,19-1.3,8.6,9.1s-10.4,27.4,0,37.8s27.4,10.4,37.8,0C56.8,36.5,56.8,19.5,46.4,9.1 M9.9,45.6
		c-9.7-9.7-9.7-25.4,0-35.1c9.7-9.7,25.4-9.7,35.1,0c9.7,9.7,9.7,25.4,0,35.1C35.4,55.3,19.6,55.3,9.9,45.6"/>
	<path class="st0" d="M17.3,11.9c-3.4-1.1-9.4,2-11.5,8.9c-2.5,8.1-0.7,19,9.4,26c10.1,7.1,24.2,2.8,29.1-4.4
		c4.9-7.2,0.9-17.1-7.6-18.4c-8.6-1.3-13.2,3.3-18.8-1.4C13.8,19,13.9,14.6,17.3,11.9"/>
</g>
</svg>
